<?xml version="1.0" standalone="no"?>
<!DOCTYPE svg PUBLIC "-//W3C//DTD SVG 20010904//EN"
 "http://www.w3.org/TR/2001/REC-SVG-20010904/DTD/svg10.dtd">
<svg version="1.0" xmlns="http://www.w3.org/2000/svg"
 width="96.000000pt" height="96.000000pt" viewBox="0 0 96.000000 96.000000"
 preserveAspectRatio="xMidYMid meet">

<g transform="translate(0.000000,96.000000) scale(0.100000,-0.100000)"
fill="#000000" stroke="none">
<path d="M251 923 c-68 -86 -59 -248 18 -317 18 -16 21 -17 21 -3 0 9 -11 32
-24 52 -46 68 -44 180 4 247 36 49 18 69 -19 21z"/>
<path d="M690 940 c0 -5 11 -25 24 -45 47 -68 46 -178 0 -249 -18 -26 -23 -41
-16 -48 18 -18 70 76 78 138 8 67 -10 145 -43 185 -25 29 -43 37 -43 19z"/>
<path d="M332 879 c-27 -28 -43 -96 -33 -140 8 -37 38 -89 50 -89 18 0 17 13
-5 57 -30 58 -30 78 0 136 25 51 19 70 -12 36z"/>
<path d="M620 892 c0 -4 9 -25 20 -47 26 -51 25 -98 -2 -146 -25 -44 -16 -66
13 -31 45 56 48 135 9 200 -18 29 -40 43 -40 24z"/>
<path d="M436 819 c-29 -34 -30 -40 -15 -83 9 -27 3 -63 -45 -251 -31 -121
-60 -236 -66 -255 -7 -26 -18 -38 -40 -47 -24 -9 -30 -17 -30 -40 0 -23 -6
-31 -30 -40 -26 -10 -30 -16 -30 -51 0 -27 5 -42 16 -46 9 -3 143 -6 298 -6
206 0 285 3 294 12 7 7 12 27 12 46 0 28 -5 36 -30 45 -21 8 -30 18 -30 33 0
27 -25 54 -49 54 -25 0 -149 506 -132 538 18 34 13 71 -14 97 -35 35 -76 33
-109 -6z m93 -13 c21 -25 9 -69 -21 -80 -50 -17 -89 42 -52 78 19 20 58 21 73
2z m-12 -120 c1 -1 9 -29 18 -61 l15 -60 -33 -33 -34 -33 -27 35 -26 35 16 66
c16 62 17 65 43 58 14 -3 27 -6 28 -7z m-76 -234 c-11 -16 -28 -35 -37 -43
-19 -15 -19 -15 7 84 l10 38 20 -25 20 -26 -20 -28z m143 -32 l7 -35 -39 45
-40 44 22 29 21 29 11 -39 c6 -21 14 -54 18 -73z m-31 -34 c83 -94 82 -96 -68
-96 -74 0 -125 4 -125 10 0 11 118 150 128 150 4 0 33 -29 65 -64z m77 -152
c6 -14 10 -30 10 -35 0 -5 -64 -9 -150 -9 -158 0 -157 -1 -144 48 6 21 10 22
140 22 l134 0 10 -26z m78 -101 l3 -23 -220 0 -221 0 0 25 0 25 218 -2 c217
-3 217 -3 220 -25z m60 -80 l3 -23 -280 0 c-281 0 -300 2 -287 36 5 12 47 14
283 12 l278 -3 3 -22z"/>
</g>
</svg>
